<?xml version="1.0" encoding="utf-8"?>
<!-- Generator: Adobe Illustrator 17.0.0, SVG Export Plug-In . SVG Version: 6.00 Build 0)  -->
<!DOCTYPE svg PUBLIC "-//W3C//DTD SVG 1.1//EN" "http://www.w3.org/Graphics/SVG/1.1/DTD/svg11.dtd">
<svg version="1.1" id="Layer_1" xmlns="http://www.w3.org/2000/svg" xmlns:xlink="http://www.w3.org/1999/xlink" x="0px" y="0px"
	 width="27.885px" height="25.23px" viewBox="0 0 27.885 25.23" enable-background="new 0 0 27.885 25.23" xml:space="preserve">
<g>
	<path fill="none" d="M3.205,15.2c-0.01-0.05-0.05-0.1-0.09-0.13c-0.07-0.08-0.18-0.12-0.29-0.14c-0.04,0-0.09,0-0.13,0.01
		c-0.04,0.01-0.08,0.02-0.12,0.04c0.21,0.31,0.45,0.6,0.7,0.88c0.02,0.01,0.03,0.02,0.05,0.04c-0.02-0.31-0.05-0.5-0.05-0.54
		C3.255,15.29,3.245,15.24,3.205,15.2z"/>
	<path d="M13.985,0c-7.67,0-13.9,4.73-13.9,10.54c0,2.13,0.84,4.12,2.28,5.78c0.01,0.2,0.02,0.43,0.02,0.69v0.009v0.021
		c0.01,1.57-0.23,4.08-1.55,6.27c0,0.006-0.003,0.009-0.006,0.012c-0.002,0.002-0.004,0.004-0.004,0.008v0.008v0.002
		c0,0-0.001,0.001-0.001,0.001c0,0.001,0,0.009-0.009,0.009c-0.2,0.35-0.43,0.67-0.7,1c-0.16,0.2-0.16,0.49,0.04,0.67
		c0.01,0.02,0.01,0.03,0.03,0.03c0.08,0.11,0.22,0.18,0.36,0.18h0.07c4.28-0.47,7.23-3.7,8.15-4.82c0.02-0.03,0.04-0.05,0.05-0.07
		c0.22,0.06,0.45,0.13,0.68,0.18c1.41,0.37,2.92,0.57,4.49,0.57c7.66,0,13.9-4.73,13.9-10.55C27.885,4.73,21.645,0,13.985,0z
		 M7.795,20c-0.91,1.06-3.15,3.32-6.25,4.06c1.49-2.33,1.82-4.95,1.84-6.71v-0.42c0-0.09,0-0.17-0.01-0.25
		c0-0.18-0.01-0.35-0.02-0.5c-0.01-0.1-0.01-0.2-0.02-0.28h-0.01c-0.02-0.02-0.03-0.03-0.05-0.04c-0.25-0.28-0.49-0.57-0.7-0.88
		c-0.95-1.33-1.49-2.84-1.49-4.44c0-5.26,5.78-9.54,12.9-9.54c7.11,0,12.9,4.28,12.9,9.54c0,5.27-5.79,9.55-12.9,9.55
		c-1.51,0-2.95-0.19-4.3-0.55c-0.18-0.04-0.36-0.09-0.54-0.15c-0.07-0.02-0.14-0.04-0.21-0.07c-0.09-0.02-0.17-0.05-0.25-0.09h-0.03
		c-0.04,0-0.07,0-0.11,0.01c-0.13,0.02-0.23,0.09-0.31,0.2c0,0.01-0.04,0.05-0.1,0.14c-0.01,0.01-0.01,0.02-0.02,0.03
		c-0.08,0.09-0.18,0.22-0.31,0.38L7.795,20z"/>
	<polygon fill="#FFFFFF" points="0.825,23.338 0.825,23.341 0.825,23.34 	"/>
</g>
</svg>
