<?xml version="1.0" encoding="utf-8"?>
<!-- Generator: Adobe Illustrator 17.0.0, SVG Export Plug-In . SVG Version: 6.00 Build 0)  -->
<!DOCTYPE svg PUBLIC "-//W3C//DTD SVG 1.1//EN" "http://www.w3.org/Graphics/SVG/1.1/DTD/svg11.dtd">
<svg version="1.1" id="Layer_1" xmlns="http://www.w3.org/2000/svg" xmlns:xlink="http://www.w3.org/1999/xlink" x="0px" y="0px"
	 width="21.75px" height="16.97px" viewBox="0 0 21.75 16.97" enable-background="new 0 0 21.75 16.97" xml:space="preserve">
<g>
	<path d="M11.18,0C5.35,0,0.6,3.64,0.6,8.12c0,1.39,0.46,2.7,1.26,3.84c-0.01,0.73-0.2,2.99-1.64,4.1
		c-0.01-0.02-0.01-0.01-0.02,0.01c-0.03,0.02-0.06,0.05-0.08,0.07c-0.04,0.04-0.07,0.09-0.08,0.14c-0.02,0.04-0.03,0.08-0.03,0.12
		C0,16.41,0,16.41,0,16.42v0.05c0,0.06,0.02,0.13,0.04,0.18c0.01,0.04,0.03,0.08,0.06,0.12c0.01,0.01,0.03,0.02,0.04,0.03
		c0.02,0.022,0.042,0.042,0.066,0.06c0.088,0.072,0.192,0.11,0.294,0.11c0.04,0,0.07,0,0.11-0.01h0.14c2,0,3.66-1.47,4.34-2.19
		c1.72,0.93,3.82,1.48,6.09,1.48c5.83,0,10.57-3.65,10.57-8.13S17.01,0,11.18,0z M1.8,15.8c0.59-0.9,0.85-1.94,0.97-2.75
		c0.04-0.24,0.06-0.46,0.08-0.64c0.03-0.41,0.02-0.69,0.02-0.73c0-0.01,0-0.01,0-0.02c-0.1-0.13-0.19-0.26-0.28-0.39
		C1.96,10.32,1.6,9.25,1.6,8.12C1.6,4.19,5.9,1,11.18,1c5.27,0,9.57,3.19,9.57,7.12s-4.3,7.13-9.57,7.13
		c-2.14,0-4.12-0.52-5.71-1.42c-0.14-0.07-0.28-0.15-0.42-0.24H5.04c-0.14,0-0.29,0.06-0.39,0.18c0,0-0.03,0.04-0.09,0.1
		c-0.07,0.09-0.19,0.21-0.34,0.37C3.73,14.72,2.85,15.46,1.8,15.8z"/>
</g>
</svg>
