<?xml version="1.0" encoding="utf-8"?>
<!-- Generator: Adobe Illustrator 17.0.0, SVG Export Plug-In . SVG Version: 6.00 Build 0)  -->
<!DOCTYPE svg PUBLIC "-//W3C//DTD SVG 1.1//EN" "http://www.w3.org/Graphics/SVG/1.1/DTD/svg11.dtd">
<svg version="1.1" id="Layer_1" xmlns="http://www.w3.org/2000/svg" xmlns:xlink="http://www.w3.org/1999/xlink" x="0px" y="0px"
	 width="21.333px" height="9.708px" viewBox="0 0 21.333 9.708" enable-background="new 0 0 21.333 9.708" xml:space="preserve">
<g>
	<path d="M20.833,0H0.5C0.224,0,0,0.224,0,0.5S0.224,1,0.5,1h20.333c0.276,0,0.5-0.224,0.5-0.5S21.11,0,20.833,0z"/>
	<path d="M13.5,4.354h-13c-0.276,0-0.5,0.224-0.5,0.5s0.224,0.5,0.5,0.5h13c0.276,0,0.5-0.224,0.5-0.5S13.776,4.354,13.5,4.354z"/>
	<path d="M8.25,8.708H0.5c-0.276,0-0.5,0.224-0.5,0.5s0.224,0.5,0.5,0.5h7.75c0.276,0,0.5-0.224,0.5-0.5S8.526,8.708,8.25,8.708z"/>
</g>
</svg>
