<?xml version="1.0" encoding="utf-8"?>
<!-- Generator: Adobe Illustrator 17.0.0, SVG Export Plug-In . SVG Version: 6.00 Build 0)  -->
<!DOCTYPE svg PUBLIC "-//W3C//DTD SVG 1.1//EN" "http://www.w3.org/Graphics/SVG/1.1/DTD/svg11.dtd">
<svg version="1.1" id="Layer_1" xmlns="http://www.w3.org/2000/svg" xmlns:xlink="http://www.w3.org/1999/xlink" x="0px" y="0px"
	 width="18.69px" height="16.334px" viewBox="0 0 18.69 16.334" enable-background="new 0 0 18.69 16.334" xml:space="preserve">
<path d="M10.445,16.334c-0.064,0-0.13-0.012-0.191-0.038c-0.187-0.077-0.309-0.26-0.309-0.462v-4.381
	c-0.979-0.255-1.963-0.384-2.929-0.384c-3.786,0-6.171,1.966-6.195,1.986c-0.153,0.127-0.366,0.154-0.542,0.066
	C0.102,13.035-0.007,12.851,0,12.653c0.003-0.08,0.432-7.973,10.101-8.042V0.5c0-0.202,0.122-0.385,0.309-0.462
	c0.187-0.078,0.401-0.035,0.545,0.108l7.589,7.588c0.094,0.094,0.146,0.221,0.146,0.354s-0.053,0.26-0.146,0.354l-7.745,7.746
	C10.703,16.284,10.575,16.334,10.445,16.334z M7.017,10.069c1.179,0,2.38,0.176,3.569,0.523c0.213,0.063,0.359,0.258,0.359,0.48
	v3.555l6.538-6.539l-6.382-6.381v3.407c0,0.134-0.054,0.263-0.15,0.357c-0.097,0.094-0.224,0.142-0.36,0.143l-0.362-0.004
	c-6.781,0-8.583,4.023-9.06,6.009C2.294,10.966,4.326,10.069,7.017,10.069z"/>
</svg>
