<?xml version="1.0" encoding="utf-8"?>
<!-- Generator: Adobe Illustrator 17.0.0, SVG Export Plug-In . SVG Version: 6.00 Build 0)  -->
<!DOCTYPE svg PUBLIC "-//W3C//DTD SVG 1.1//EN" "http://www.w3.org/Graphics/SVG/1.1/DTD/svg11.dtd">
<svg version="1.1" id="Layer_1" xmlns="http://www.w3.org/2000/svg" xmlns:xlink="http://www.w3.org/1999/xlink" x="0px" y="0px"
	 width="16.318px" height="15.763px" viewBox="0 0 16.318 15.763" enable-background="new 0 0 16.318 15.763" xml:space="preserve">
<g>
	<path fill="none" d="M1.707,7.649h3.518c0.276,0,0.5,0.224,0.5,0.5v6.613h2.434h2.435V8.149c0-0.276,0.224-0.5,0.5-0.5h3.517
		L8.159,1.198L1.707,7.649z"/>
	<path d="M16.171,7.796L8.522,0.146c-0.07-0.07-0.164-0.106-0.261-0.124C8.226,0.015,8.192,0.001,8.156,0
		c-0.148,0.009-0.265,0.051-0.36,0.146L0.147,7.796C0.004,7.939-0.039,8.154,0.038,8.341C0.115,8.528,0.298,8.649,0.5,8.649h4.225
		v6.613c0,0.276,0.224,0.5,0.5,0.5h2.934h2.935c0.276,0,0.5-0.224,0.5-0.5V8.649h4.224c0.202,0,0.385-0.122,0.462-0.309
		C16.357,8.154,16.314,7.939,16.171,7.796z M11.093,7.649c-0.276,0-0.5,0.224-0.5,0.5v6.613H8.159H5.725V8.149
		c0-0.276-0.224-0.5-0.5-0.5H1.707l6.452-6.452l6.451,6.452H11.093z"/>
</g>
</svg>
