<?xml version="1.0" encoding="utf-8"?>
<!-- Generator: Adobe Illustrator 17.0.0, SVG Export Plug-In . SVG Version: 6.00 Build 0)  -->
<!DOCTYPE svg PUBLIC "-//W3C//DTD SVG 1.1//EN" "http://www.w3.org/Graphics/SVG/1.1/DTD/svg11.dtd">
<svg version="1.1" id="Layer_1" xmlns="http://www.w3.org/2000/svg" xmlns:xlink="http://www.w3.org/1999/xlink" x="0px" y="0px"
	 width="19.418px" height="12.231px" viewBox="0 0 19.418 12.231" enable-background="new 0 0 19.418 12.231" xml:space="preserve">
<g>
	<path fill="none" d="M9.705,1C5.528,1,3.073,3.083,2.211,3.979c-0.858,0.892-1.227,1.707-1.21,2.118
		c0.052,1.319,3.125,5.135,8.704,5.135c4.087,0,6.557-2.071,7.43-2.961c0.894-0.912,1.291-1.751,1.283-2.145
		C18.392,4.85,15.26,1,9.705,1z M9.709,9.654c-1.865,0-3.375-1.5-3.401-3.359c0.123,0.02,0.247,0.038,0.376,0.038
		c1.269,0,2.297-1.028,2.297-2.297c0-0.374-0.098-0.721-0.256-1.033c0.314-0.095,0.64-0.162,0.984-0.162
		c1.881,0,3.406,1.525,3.406,3.406S11.59,9.654,9.709,9.654z"/>
	<path d="M9.705,0C5.144,0,2.441,2.297,1.49,3.285c-0.963,1-1.52,2.066-1.489,2.85c0.082,2.093,3.925,6.096,9.704,6.096
		c4.466,0,7.183-2.281,8.144-3.261c0.998-1.019,1.585-2.09,1.569-2.865C19.38,4.241,15.671,0,9.705,0z M17.135,8.271
		c-0.873,0.89-3.343,2.961-7.43,2.961c-5.579,0-8.652-3.815-8.704-5.135c-0.017-0.412,0.352-1.226,1.21-2.118
		C3.073,3.083,5.528,1,9.705,1c5.555,0,8.687,3.85,8.713,5.126C18.426,6.52,18.029,7.358,17.135,8.271z"/>
	<path d="M9.709,2.841c-0.345,0-0.671,0.066-0.984,0.162c0.158,0.312,0.256,0.659,0.256,1.033c0,1.268-1.028,2.297-2.297,2.297
		c-0.129,0-0.253-0.018-0.376-0.038c0.026,1.859,1.536,3.359,3.401,3.359c1.881,0,3.406-1.525,3.406-3.406S11.59,2.841,9.709,2.841z
		"/>
</g>
</svg>
